<svg xmlns="http://www.w3.org/2000/svg" width="27" height="26" viewBox="0 0 27 26" fill="none">
  <g clip-path="url(#clip0_3_62)">
    <path d="M13.5 0.400391C20.4599 0.400391 26.0996 6.0416 26.0996 13C26.0996 19.9584 20.4584 25.5996 13.5 25.5996C6.54163 25.5996 0.900428 19.9584 0.900391 13C0.900391 6.04161 6.54161 0.400403 13.5 0.400391ZM15.7627 6.7002C15.6168 6.96058 15.4543 7.31368 15.3408 7.59082C14.1083 7.40606 12.8845 7.40603 11.6689 7.59082C11.5555 7.31372 11.3858 6.96057 11.248 6.7002C10.0811 6.90179 8.97074 7.26319 7.93262 7.75879C5.83383 10.9675 5.26619 14.1003 5.5498 17.1914C6.9437 18.2414 8.28956 18.8798 9.61133 19.2998C9.93537 18.8463 10.2264 18.3589 10.4775 17.8467C9.99955 17.6619 9.54589 17.4347 9.1084 17.166C9.22178 17.0821 9.33515 16.9898 9.44043 16.8975C12.0823 18.1491 14.9442 18.1491 17.5537 16.8975C17.6671 16.9898 17.7724 17.0821 17.8857 17.166C17.4482 17.4348 16.9947 17.6619 16.5166 17.8467C16.7678 18.359 17.0597 18.8462 17.3838 19.2998C18.7046 18.8798 20.0579 18.2413 21.4443 17.1914C21.7927 13.6132 20.8923 10.5055 19.0771 7.75879C18.0318 7.26321 16.9215 6.9018 15.7627 6.7002ZM10.8428 11.958C11.6449 11.9581 12.3011 12.7058 12.2852 13.6211C12.2852 14.5366 11.645 15.2851 10.8428 15.2852C10.0486 15.2852 9.40039 14.5367 9.40039 13.6211C9.4006 12.7057 10.0325 11.958 10.8428 11.958ZM16.168 11.958C16.9701 11.9581 17.6263 12.7058 17.6104 13.6211C17.6104 14.5366 16.9783 15.2851 16.168 15.2852C15.3737 15.2852 14.7246 14.5367 14.7246 13.6211C14.7248 12.7057 15.3577 11.958 16.168 11.958Z" fill="white"/>
  </g>
  <defs>
    <clipPath id="clip0_3_62">
      <rect width="26" height="26" fill="white" transform="translate(0.5)"/>
    </clipPath>
  </defs>
</svg>