<svg xmlns="http://www.w3.org/2000/svg" width="429" height="288" fill="none"><g clip-path="url(#a)"><path fill="url(#b)" fill-rule="evenodd" d="m267.236 98.858-10.602-9.485.667-.746 10.602 9.486-.667.745zm.927 13.868c-6.922-9.69-15.099-16.392-25.503-22.173l.485-.874c10.51 5.838 18.809 12.634 25.831 22.466l-.813.581zM159 98l.284.411h.001l.003-.002.012-.008.053-.036.22-.143c.196-.126.491-.31.884-.541a47.377 47.377 0 0 1 3.509-1.855c3.099-1.487 7.692-3.35 13.655-4.84l-.242-.971c-6.037 1.509-10.693 3.396-13.845 4.91a48.51 48.51 0 0 0-3.584 1.894 28.255 28.255 0 0 0-1.151.714l-.061.04-.016.011-.005.004h-.001L159 98zm109.637 54.676c-7.822-48.051-61.642-72.194-109.102-43.976l-.421-.708c47.891-28.474 102.408-4.149 110.336 44.552l-.813.132zm-108.961-32.257a54.774 54.774 0 0 1 43.278-15.664l4.735.409c36.512 3.16 61.456 38.459 51.914 73.836-2.469 9.154-4.459 16.371-5.341 19.217l.955.296c.889-2.868 2.884-10.106 5.351-19.252 9.707-35.985-15.666-71.88-52.793-75.093l-4.735-.41a55.778 55.778 0 0 0-44.068 15.95l.704.711zm42.788-7.199a49.485 49.485 0 0 0-41.64 17.946l-.773-.635a50.484 50.484 0 0 1 42.482-18.308l1.499.103c33.681 2.328 57.708 34.311 48.114 66.733-2.212 7.475-4.416 14.294-6.429 19.486l-.932-.361c1.998-5.154 4.192-11.943 6.402-19.409 9.398-31.76-14.129-63.164-47.223-65.451l-1.5-.104zm-40.434 30.228c9.456-15.916 27.463-24.883 45.459-20.773 24.971 5.703 41.748 29.613 34.704 54.139-2.101 7.315-4.575 14.677-7.442 21.353l.919.395c2.888-6.726 5.375-14.131 7.484-21.472 7.229-25.169-10.008-49.581-35.443-55.39-18.471-4.219-36.892 4.996-46.541 21.238-.67 1.128-1.247 2.047-1.697 2.69l.819.573c.472-.674 1.064-1.618 1.738-2.753zm43.011-11.33c-16.675-3.228-32.978 6.891-38.032 23.126-1.357 4.359-2.693 8.499-3.856 11.824-1.154 3.305-2.155 5.859-2.841 7.003l-.858-.515c.624-1.039 1.591-3.487 2.755-6.818 1.157-3.31 2.49-7.437 3.845-11.792 5.2-16.704 21.984-27.138 39.177-23.81 19.432 3.762 33.395 21.22 29.275 40.683-1.789 8.452-4.283 17.695-7.757 26.725l-.933-.359c3.45-8.969 5.931-18.159 7.712-26.573 3.983-18.819-9.501-35.818-28.487-39.494zm-31.66 28.838c4.189-13.814 18.114-22.992 32.126-19.76 12.403 2.86 21.968 12.612 20.323 25.08-1.108 8.405-3.741 19.058-9.407 31.358l.747.345c5.702-12.378 8.358-23.111 9.477-31.595 1.718-13.032-8.296-23.071-20.955-25.991-14.486-3.341-28.801 6.149-33.099 20.324-3.287 10.839-7.828 22.924-13.614 31.844l.691.448c5.85-9.019 10.417-21.193 13.711-32.053zm29.954-11.707c-9.38-1.564-18.429 4.298-21.358 13.378-3.619 11.221-8.96 25.753-14.974 35.443l-.85-.527c5.944-9.578 11.255-24.007 14.873-35.223 3.071-9.522 12.574-15.708 22.473-14.057 10.453 1.743 17.498 11.598 14.569 21.854-2.279 7.98-5.61 17.82-10.302 27.9l-.906-.422c4.664-10.021 7.978-19.809 10.246-27.753 2.747-9.617-3.838-18.936-13.771-20.593zm-11.915 15.455c1.329-4.245 5.693-6.799 10.013-5.791 4.463 1.041 7.208 5.48 5.999 9.876-2.137 7.76-5.696 19.407-10.06 28.807l.907.421c4.401-9.477 7.977-21.189 10.117-28.963 1.366-4.966-1.743-9.95-6.736-11.115-4.841-1.13-9.712 1.733-11.194 6.466-3.019 9.639-8.346 25.374-13.153 33.139l.85.526c4.886-7.893 10.248-23.756 13.257-33.366zm-3.192 33.326c1.681-3.36 4.254-8.955 6.52-14.83 2.262-5.863 4.237-12.055 4.69-16.591l-.995-.099c-.439 4.392-2.369 10.475-4.628 16.33-2.253 5.842-4.813 11.407-6.481 14.743l.894.447zm39.655-105.201a71.464 71.464 0 0 1 40.644 35.067l1.969 3.839.733-.376-1.969-3.838a72.289 72.289 0 0 0-41.112-35.472l-.265.78z" clip-rule="evenodd"/><path stroke="#fff" stroke-dasharray="1 9.02" stroke-linejoin="round" stroke-width="1.002" d="m161.5 167.5 12-51.5 59.5 35 28-32"/><path fill="#040114" stroke="url(#c)" stroke-width="3" d="M228.5 148.5h9v9h-9z"/><circle cx="233" cy="153" r="1" fill="#fff"/><path fill="#040114" stroke="url(#d)" stroke-width="3" d="M157.5 165.5h9v9h-9z"/><circle cx="162" cy="170" r="1" fill="#fff"/><path fill="#040114" stroke="url(#e)" stroke-width="3" d="M168.5 104.5h9v9h-9z"/><path fill="#040114" stroke="url(#f)" stroke-width="3" d="M264.5 106.5h9v9h-9z"/><circle cx="269" cy="111" r="1" fill="#fff"/><circle cx="173" cy="109" r="1" fill="#fff"/><path stroke="#fff" d="M109.367 65.485V40.152h25.573M318 223v24h-24m-1.338-206.848h25.572v25.333M133 247h-24v-24"/><path fill="#fff" fill-rule="evenodd" d="M180.266 246.607a.884.884 0 1 1 0 1.767.884.884 0 0 1 0-1.767zm-21.499.885a.883.883 0 1 0-1.767-.001.883.883 0 0 0 1.767.001zm67.258 0a.884.884 0 1 0-1.767 0 .884.884 0 0 0 1.767 0zm22.383-.001a.884.884 0 1 0-1.769 0 .884.884 0 0 0 1.769 0zm-45.755-.882a.884.884 0 1 1 0 1.769.884.884 0 0 1 0-1.769zm68.142.884a.884.884 0 1 0-1.769 0 .884.884 0 0 0 1.769 0zM180.266 39.607a.883.883 0 1 1 .001 1.766.883.883 0 0 1-.001-1.766zm-21.499.885a.883.883 0 1 0-1.766-.001.883.883 0 0 0 1.766.001zm67.258 0a.883.883 0 1 0-1.767 0 .883.883 0 0 0 1.767 0zm22.383-.002a.884.884 0 1 0-1.768.001.884.884 0 0 0 1.768 0zm-45.755-.881a.884.884 0 1 1 0 1.768.884.884 0 0 1 0-1.768zm68.142.884a.884.884 0 1 0-1.768 0 .884.884 0 0 0 1.768 0zM110.399 178.502a.884.884 0 1 0 0-1.767.884.884 0 0 0 0 1.767zm.884-68.141a.883.883 0 1 1-1.767 0 .883.883 0 0 1 1.767 0zm-.888 45.758a.883.883 0 1 0 .001-1.767.883.883 0 0 0-.001 1.767zm0-67.257a.884.884 0 1 0 0-1.768.884.884 0 0 0 0 1.768zm.884 43.885a.884.884 0 1 1-1.769 0 .884.884 0 0 1 1.769 0zm-.884 68.142a.884.884 0 1 0 0-1.769.884.884 0 0 0 0 1.769zm207.004-22.387a.884.884 0 1 0 0-1.767.884.884 0 0 0 0 1.767zm.884-68.141a.883.883 0 1 1-1.767 0 .883.883 0 0 1 1.767 0zm-.888 45.758a.883.883 0 1 0 .001-1.767.883.883 0 0 0-.001 1.767zm0-67.257a.884.884 0 1 0 0-1.768.884.884 0 0 0 0 1.768zm.884 43.885a.884.884 0 1 1-1.769 0 .884.884 0 0 1 1.769 0zm-.884 68.142a.884.884 0 1 0 0-1.769.884.884 0 0 0 0 1.769z" clip-rule="evenodd"/></g><defs><linearGradient id="c" x1="227.434" x2="240.229" y1="159" y2="147" gradientUnits="userSpaceOnUse"><stop stop-color="#492BFF"/><stop offset=".28" stop-color="#8045FF"/><stop offset=".5" stop-color="#B95CFF"/><stop offset=".977" stop-color="#FF9CBE"/></linearGradient><linearGradient id="d" x1="156.434" x2="169.229" y1="176" y2="164" gradientUnits="userSpaceOnUse"><stop stop-color="#492BFF"/><stop offset=".28" stop-color="#8045FF"/><stop offset=".5" stop-color="#B95CFF"/><stop offset=".977" stop-color="#FF9CBE"/></linearGradient><linearGradient id="e" x1="167.434" x2="180.229" y1="115" y2="103" gradientUnits="userSpaceOnUse"><stop stop-color="#492BFF"/><stop offset=".28" stop-color="#8045FF"/><stop offset=".5" stop-color="#B95CFF"/><stop offset=".977" stop-color="#FF9CBE"/></linearGradient><linearGradient id="f" x1="263.434" x2="276.229" y1="117" y2="105" gradientUnits="userSpaceOnUse"><stop stop-color="#492BFF"/><stop offset=".28" stop-color="#8045FF"/><stop offset=".5" stop-color="#B95CFF"/><stop offset=".977" stop-color="#FF9CBE"/></linearGradient><radialGradient id="b" cx="0" cy="0" r="1" gradientTransform="matrix(85.49962 -80.00073 81.8769 87.50474 185.503 176.501)" gradientUnits="userSpaceOnUse"><stop offset=".495" stop-color="#fff"/><stop offset="1"/></radialGradient><clipPath id="a"><path fill="#fff" d="M0 0h429v288H0z"/></clipPath></defs></svg>