<svg xmlns="http://www.w3.org/2000/svg" width="103" height="21" viewBox="0 0 103 21" fill="none">
  <g clip-path="url(#clip0_3_1455)">
    <path d="M45.187 19.5432C43.338 19.5432 41.751 19.1262 40.424 18.2932C39.097 17.4602 38.077 16.3382 37.364 14.9282C36.65 13.5182 36.293 11.9532 36.293 10.2312C36.293 8.51015 36.658 6.94515 37.391 5.53415C38.123 4.12515 39.161 3.00315 40.506 2.16915C41.851 1.33615 43.43 0.919152 45.241 0.919152C47.2 0.919152 48.897 1.40015 50.333 2.36115C51.77 3.32215 52.827 4.56415 53.504 6.08315H51.253C50.704 5.11315 49.939 4.34415 48.96 3.77615C47.981 3.20915 46.796 2.92515 45.405 2.92515C43.941 2.92515 42.679 3.25015 41.617 3.90015C40.556 4.55015 39.745 5.42515 39.188 6.52315C38.629 7.62215 38.35 8.85815 38.35 10.2312C38.35 11.6042 38.625 12.8182 39.174 13.9262C39.722 15.0332 40.523 15.9132 41.575 16.5632C42.628 17.2132 43.886 17.5382 45.35 17.5382C46.448 17.5382 47.487 17.3002 48.465 16.8242C49.444 16.3482 50.24 15.6612 50.854 14.7642C51.467 13.8672 51.774 12.7862 51.774 11.5222H45.13V9.65415H53.668V19.3232H51.774V16.1102C51.389 16.6962 50.895 17.2492 50.291 17.7722C49.687 18.2942 48.96 18.7192 48.108 19.0492C47.257 19.3782 46.283 19.5432 45.185 19.5432H45.187ZM62.514 19.5432C61.177 19.5432 60.011 19.2272 59.014 18.5952C58.016 17.9642 57.243 17.1082 56.694 16.0272C56.146 14.9472 55.871 13.7572 55.871 12.4572C55.871 11.1572 56.146 9.94315 56.694 8.87215C57.243 7.80015 58.017 6.94915 59.014 6.31715C60.011 5.68515 61.177 5.36915 62.514 5.36915C63.648 5.36915 64.623 5.58915 65.437 6.02915C66.251 6.46815 66.915 7.06415 67.427 7.81415V5.59015H69.486V19.3242H67.427V17.1262C66.915 17.8592 66.251 18.4452 65.437 18.8842C64.623 19.3242 63.648 19.5442 62.514 19.5442V19.5432ZM62.788 17.6752C63.813 17.6752 64.678 17.4372 65.383 16.9602C66.087 16.4842 66.622 15.8482 66.989 15.0522C67.354 14.2552 67.538 13.3902 67.538 12.4562C67.538 11.5222 67.354 10.6332 66.989 9.84615C66.622 9.05915 66.087 8.42715 65.383 7.95115C64.678 7.47515 63.813 7.23715 62.788 7.23715C61.763 7.23715 60.912 7.47515 60.18 7.95115C59.448 8.42715 58.89 9.05915 58.506 9.84615C58.121 10.6332 57.929 11.5032 57.929 12.4562C57.929 13.4082 58.121 14.2552 58.506 15.0522C58.891 15.8492 59.448 16.4852 60.18 16.9602C60.912 17.4372 61.782 17.6752 62.788 17.6752ZM72.462 19.3232V0.0951518H74.521V19.3232H72.462ZM75.936 19.3232L81.235 12.2372L76.266 5.58915H78.902L82.443 10.7802L85.957 5.58915H88.592L83.624 12.2372L88.949 19.3232H86.313L82.443 13.7202L78.544 19.3232H75.936ZM95.77 19.5432C94.379 19.5432 93.162 19.2272 92.119 18.5952C91.076 17.9642 90.266 17.1082 89.69 16.0272C89.113 14.9472 88.825 13.7572 88.825 12.4572C88.825 11.1572 89.1 9.94315 89.648 8.87215C90.197 7.80015 90.984 6.94915 92.009 6.31715C93.034 5.68515 94.242 5.36915 95.633 5.36915C97.024 5.36915 98.254 5.68515 99.27 6.31715C100.286 6.94915 101.068 7.80015 101.617 8.87215C102.166 9.94315 102.441 11.1372 102.441 12.4572V13.2802H90.938C91.048 14.0872 91.309 14.8232 91.721 15.4912C92.133 16.1602 92.686 16.6912 93.382 17.0842C94.077 17.4782 94.883 17.6752 95.798 17.6752C96.768 17.6752 97.582 17.4602 98.241 17.0302C98.9 16.5992 99.411 16.0452 99.778 15.3682H102.029C101.553 16.5952 100.798 17.5972 99.764 18.3762C98.73 19.1542 97.399 19.5432 95.77 19.5432ZM90.966 11.3572H100.299C100.116 10.1862 99.622 9.20615 98.817 8.41815C98.011 7.63115 96.949 7.23715 95.632 7.23715C94.315 7.23715 93.257 7.63115 92.462 8.41815C91.665 9.20615 91.167 10.1862 90.966 11.3572ZM22.105 2.45215L2.593 13.7242L20.721 0.337152C21.328 -0.110848 22.19 0.0691518 22.567 0.723152C22.916 1.32915 22.709 2.10315 22.104 2.45315L22.105 2.45215ZM24.893 12.2082C24.631 11.7542 24.051 11.5992 23.598 11.8612L10.68 19.3232L24.437 13.5572C24.964 13.3372 25.178 12.7032 24.893 12.2082ZM31.41 2.20515C30.864 1.25815 29.633 0.965152 28.72 1.56415L0.5 20.0622L30.619 4.85715C31.595 4.36415 31.957 3.15215 31.41 2.20515Z" fill="white"/>
  </g>
  <defs>
    <clipPath id="clip0_3_1455">
      <rect width="102" height="20" fill="white" transform="translate(0.5 0.0899658)"/>
    </clipPath>
  </defs>
</svg>