<svg xmlns="http://www.w3.org/2000/svg" width="440" height="288" fill="none"><path stroke="url(#a)" stroke-width="3" d="m168.249 221.753-52.296-103.71 102.413-51.428 81.625 59.142-17.329 114.785-114.413-18.789z"/><path stroke="#fff" d="m209.977 45.927 8.586-6.816 8.835 6.816m90.227 64.378 8.807 6.529-4.298 10.298m-205.975 0-4.362-10.058 8.871-6.769m42.746 133.085-10.943.648-3.316-10.655m138.362-.459-2.412 10.694-11.156.231"/><circle cx="194" cy="59.359" r=".884" fill="#fff" transform="rotate(55.072 194 59.359)"/><circle cx="175.649" cy="72.177" r=".884" fill="#fff" transform="rotate(55.072 175.649 72.177)"/><circle cx="157.293" cy="84.992" r=".884" fill="#fff" transform="rotate(55.072 157.293 84.992)"/><circle cx="138.946" cy="97.81" r=".884" fill="#fff" transform="rotate(55.072 138.946 97.81)"/><circle cx="300.576" cy="99.764" r=".884" fill="#fff" transform="rotate(127.883 300.576 99.764)"/><circle cx="282.908" cy="86.021" r=".884" fill="#fff" transform="rotate(127.883 282.908 86.02)"/><circle cx="265.24" cy="72.273" r=".884" fill="#fff" transform="rotate(127.883 265.24 72.273)"/><circle cx="247.572" cy="58.53" r=".884" fill="#fff" transform="rotate(127.883 247.572 58.53)"/><circle cx="293.704" cy="210.71" r=".884" fill="#fff" transform="rotate(-160.931 293.704 210.71)"/><circle cx="301.012" cy="189.551" r=".884" fill="#fff" transform="rotate(-160.931 301.012 189.551)"/><circle cx="308.329" cy="168.396" r=".884" fill="#fff" transform="rotate(-160.931 308.329 168.396)"/><circle cx="315.637" cy="147.239" r=".884" fill="#fff" transform="rotate(-160.931 315.637 147.239)"/><circle cx="186.626" cy="244.492" r=".884" fill="#fff" transform="rotate(-90 186.626 244.492)"/><circle cx="209.009" cy="244.491" r=".884" fill="#fff" transform="rotate(-90 209.009 244.491)"/><circle cx="231.395" cy="244.493" r=".884" fill="#fff" transform="rotate(-90 231.395 244.493)"/><circle cx="253.778" cy="244.49" r=".884" fill="#fff" transform="rotate(-90 253.778 244.49)"/><circle cx="121.416" cy="146.09" r=".884" fill="#fff" transform="rotate(-18.98 121.416 146.09)"/><circle cx="128.701" cy="167.257" r=".884" fill="#fff" transform="rotate(-18.98 128.701 167.257)"/><circle cx="135.978" cy="188.426" r=".884" fill="#fff" transform="rotate(-18.98 135.978 188.426)"/><circle cx="143.263" cy="209.593" r=".884" fill="#fff" transform="rotate(-18.98 143.263 209.593)"/><path fill="#fff" d="M220.686 7.714h-2.968v2.52h3.461V11h-4.365V3.89h4.321v.772h-3.417v2.285h2.968v.767zm4.297-1.035 1.533-2.788h1.065l-2.066 3.525L227.63 11h-1.055l-1.572-2.842L223.426 11h-1.07l2.119-3.584-2.065-3.525h1.059l1.514 2.788zm4.79 1.47V11h-.903V3.89h2.305c.319.007.62.058.903.152.286.094.537.231.752.41.215.18.384.4.508.664.127.264.19.567.19.908 0 .342-.063.645-.19.909-.124.26-.293.48-.508.659a2.278 2.278 0 0 1-.752.41 2.931 2.931 0 0 1-.903.146h-1.402zm0-.743h1.402c.208-.003.4-.036.576-.097.176-.066.329-.157.459-.274a1.2 1.2 0 0 0 .302-.425c.075-.169.113-.361.113-.576 0-.215-.038-.408-.113-.58a1.255 1.255 0 0 0-.297-.44 1.366 1.366 0 0 0-.464-.279 1.727 1.727 0 0 0-.576-.102h-1.402v2.773zm8.931.308h-2.969v2.52h3.462V11h-4.365V3.89h4.321v.772h-3.418v2.285h2.969v.767zm4.448.386h-1.421V11h-.898V3.89h2.085c.332.007.644.054.937.142.293.088.55.22.772.396.218.176.389.397.512.664.127.263.191.574.191.932 0 .232-.034.443-.103.635a1.86 1.86 0 0 1-.273.523 2.021 2.021 0 0 1-.42.415c-.163.12-.342.223-.537.307l1.509 3.037-.005.059h-.952l-1.397-2.9zm-1.421-.743h1.211c.202-.003.392-.034.571-.092a1.5 1.5 0 0 0 .474-.264 1.24 1.24 0 0 0 .435-.986 1.46 1.46 0 0 0-.113-.596 1.216 1.216 0 0 0-.312-.435 1.359 1.359 0 0 0-.479-.258 2.05 2.05 0 0 0-.6-.093h-1.187v2.724zm5.073-3.466h4.297v.786h-1.704v5.542h1.704V11h-4.297v-.781h1.665V4.677h-1.665V3.89zm9.917 3.823h-2.968v2.52h3.462V11h-4.366V3.89h4.322v.772h-3.418v2.285h2.968v.767zM263.269 11h-.918l-2.758-5.313-.015 5.313h-.913V3.89h.918l2.759 5.303.014-5.302h.913V11zm6.158-2.139a3.14 3.14 0 0 1-.254.909 2.336 2.336 0 0 1-.494.703 2.189 2.189 0 0 1-.727.463 2.547 2.547 0 0 1-.928.162c-.293 0-.56-.041-.801-.122a2.31 2.31 0 0 1-1.123-.864 3.155 3.155 0 0 1-.332-.65 3.956 3.956 0 0 1-.205-.737 5.208 5.208 0 0 1-.068-.782v-.99a5.2 5.2 0 0 1 .068-.782c.046-.257.114-.503.205-.737.088-.235.199-.451.332-.65a2.251 2.251 0 0 1 1.123-.864 2.38 2.38 0 0 1 .801-.127c.355 0 .672.055.952.166.28.107.521.26.723.459.202.202.363.443.483.723.124.28.205.589.245.927h-.904a2.678 2.678 0 0 0-.151-.6 1.672 1.672 0 0 0-.288-.489 1.25 1.25 0 0 0-.445-.327 1.427 1.427 0 0 0-.615-.122c-.215 0-.405.036-.571.108a1.254 1.254 0 0 0-.42.283c-.12.12-.221.26-.303.42-.078.16-.141.329-.19.508a3.852 3.852 0 0 0-.137 1.093v1.001c0 .176.01.358.029.547.023.186.059.368.108.547.049.182.112.353.19.513.078.16.178.3.298.42.121.123.262.221.425.293.163.068.353.102.571.102.238 0 .443-.037.615-.112.176-.075.324-.18.445-.317.12-.134.216-.292.288-.474a2.69 2.69 0 0 0 .151-.6h.904zm5.312-1.147h-2.969v2.52h3.462V11h-4.365V3.89h4.321v.772h-3.418v2.285h2.969v.767zm-56.943 17.52h3.476V26h-4.38v-7.11h.904v6.343zm6.728.766-2.246-7.11h.967l1.562 5.308.103.347.107-.357 1.573-5.297h.962L225.31 26h-.786zm5.835-.586c0-.192.059-.356.176-.493.117-.137.295-.205.532-.205.235 0 .412.068.532.205a.698.698 0 0 1 .186.493.674.674 0 0 1-.186.483c-.123.13-.301.196-.532.196-.234 0-.412-.065-.532-.195a.709.709 0 0 1-.176-.484zm7.363.586h-.903v-5.957l-1.86.708v-.825l2.69-1.035h.073V26zm-95.215 100.229h-.855v-3.286h-2.915v3.286h-.849v-7.109h.849v3.057h2.915v-3.057h.855v7.109zm6.011-7.109.009 4.815c0 .332-.058.642-.175.932-.118.29-.279.542-.484.757a2.268 2.268 0 0 1-.732.518 2.316 2.316 0 0 1-.933.185c-.345 0-.659-.062-.942-.185a2.164 2.164 0 0 1-.728-.513 2.343 2.343 0 0 1-.473-.757 2.627 2.627 0 0 1-.176-.937l.01-4.815h.859l.019 4.815c.004.211.036.415.098.61.065.195.158.368.278.517.118.15.264.271.44.362.179.091.384.136.615.136.231 0 .435-.043.61-.131.176-.091.324-.214.445-.367.117-.149.207-.322.268-.517.062-.195.096-.399.103-.61l.015-4.815h.874zm2.534 0 1.157 3.555 1.25-3.555h1.123v7.109h-.879v-2.836l.073-2.969-1.313 3.828h-.518l-1.206-3.726.073 2.867v2.836h-.878v-7.109h1.118zm8.408 5.269h-2.373l-.571 1.84h-.904l2.295-7.109h.757l2.256 7.109h-.899l-.561-1.84zm-2.129-.787h1.89l-.938-3.085-.952 3.085zm9.194 2.627h-.918l-2.758-5.312-.015 5.312h-.913v-7.109h.918l2.759 5.303.014-5.303h.913v7.109zm1.553-7.109h4.297v.786h-1.704v5.542h1.704v.781h-4.297v-.781h1.665v-5.542h-1.665v-.786zm10.801.772h-2.197v6.337h-.879v-6.337h-2.198v-.772h5.274v.772zm3.306 2.797 1.621-3.569h1.025l-2.212 4.458-.015 2.651h-.839l-.015-2.651-2.212-4.458h1.03l1.617 3.569zm-43.116 17.774h3.477v.766h-4.38v-7.109h.903v6.343zm6.729.766-2.246-7.109h.967l1.562 5.308.103.346.107-.356 1.572-5.298h.962l-2.241 7.109h-.786zm5.835-.586c0-.192.058-.356.176-.493.117-.136.294-.205.532-.205.234 0 .412.069.532.205a.698.698 0 0 1 .186.493.673.673 0 0 1-.186.484c-.124.13-.301.195-.532.195-.235 0-.412-.065-.532-.195a.706.706 0 0 1-.176-.484zm8.794.586h-4.658v-.649l2.329-2.588c.208-.231.382-.436.522-.615a3.88 3.88 0 0 0 .337-.498c.085-.15.145-.291.181-.425.036-.137.053-.277.053-.42 0-.176-.029-.34-.087-.493a1.14 1.14 0 0 0-.245-.405 1.273 1.273 0 0 0-.922-.371 1.72 1.72 0 0 0-.621.102 1.155 1.155 0 0 0-.693.747 2.04 2.04 0 0 0-.083.601h-.908c0-.3.052-.581.156-.845.104-.267.256-.5.454-.698.196-.199.435-.357.718-.474.286-.117.612-.176.977-.176.335 0 .636.051.903.152.27.097.498.234.683.41.186.176.328.384.425.625a2.013 2.013 0 0 1 .044 1.416 3.27 3.27 0 0 1-.288.61 5.444 5.444 0 0 1-.43.601c-.159.195-.328.391-.507.586l-1.91 2.07h3.57v.737zM291.739 262.1h-2.373l-.571 1.84h-.903l2.295-7.109h.756l2.256 7.109h-.898l-.562-1.84zm-2.129-.787h1.89l-.938-3.085-.952 3.085zm8.462.831a.963.963 0 0 0-.151-.552 1.33 1.33 0 0 0-.381-.381 2.52 2.52 0 0 0-.518-.254 14.52 14.52 0 0 0-.537-.186 8.507 8.507 0 0 1-.766-.292 3.653 3.653 0 0 1-.703-.42 2.161 2.161 0 0 1-.528-.586 1.561 1.561 0 0 1-.2-.801c0-.306.067-.58.2-.82.137-.241.314-.445.533-.611a2.35 2.35 0 0 1 .742-.376c.276-.088.555-.132.835-.132.309 0 .607.052.893.157.287.101.541.244.762.429.221.186.399.41.532.674.134.264.204.558.21.884h-.928a1.94 1.94 0 0 0-.151-.557 1.284 1.284 0 0 0-.742-.713 1.536 1.536 0 0 0-.576-.102c-.173 0-.342.024-.508.073a1.332 1.332 0 0 0-.435.22c-.13.098-.234.218-.312.361a1.057 1.057 0 0 0-.113.498.92.92 0 0 0 .157.523c.101.14.229.258.385.356.153.098.319.179.499.244.182.065.353.122.512.171a7.2 7.2 0 0 1 .791.298c.264.114.505.26.723.439.215.166.387.37.517.611.134.241.201.519.201.835 0 .319-.072.597-.215.835-.14.237-.322.434-.547.591-.225.159-.479.28-.762.361a3.183 3.183 0 0 1-.849.117 3.03 3.03 0 0 1-1.001-.171 2.5 2.5 0 0 1-.85-.493 2.155 2.155 0 0 1-.513-.649 2.025 2.025 0 0 1-.2-.835h.923c.029.221.089.418.181.59a1.487 1.487 0 0 0 .844.704c.189.058.394.087.616.087.175 0 .348-.021.517-.063a1.42 1.42 0 0 0 .459-.21c.134-.091.243-.207.327-.347a.974.974 0 0 0 .127-.507zm6.006 0a.963.963 0 0 0-.151-.552 1.33 1.33 0 0 0-.381-.381 2.52 2.52 0 0 0-.518-.254 14.52 14.52 0 0 0-.537-.186 8.507 8.507 0 0 1-.766-.292 3.662 3.662 0 0 1-.704-.42 2.174 2.174 0 0 1-.527-.586 1.561 1.561 0 0 1-.2-.801c0-.306.067-.58.2-.82.137-.241.314-.445.532-.611.218-.166.466-.291.743-.376.276-.088.555-.132.835-.132.309 0 .607.052.893.157.287.101.54.244.762.429a2.034 2.034 0 0 1 .742 1.558h-.928a1.94 1.94 0 0 0-.151-.557 1.284 1.284 0 0 0-.742-.713 1.54 1.54 0 0 0-.576-.102c-.173 0-.342.024-.508.073a1.332 1.332 0 0 0-.435.22c-.13.098-.234.218-.312.361a1.057 1.057 0 0 0-.113.498.92.92 0 0 0 .157.523c.1.14.229.258.385.356.153.098.319.179.498.244.183.065.354.122.513.171.264.082.527.181.791.298.264.114.505.26.723.439.215.166.387.37.517.611.134.241.201.519.201.835 0 .319-.072.597-.215.835-.14.237-.323.434-.547.591-.225.159-.479.28-.762.361a3.184 3.184 0 0 1-.85.117 3.04 3.04 0 0 1-1.001-.171 2.504 2.504 0 0 1-.849-.493 2.155 2.155 0 0 1-.513-.649 2.01 2.01 0 0 1-.2-.835h.923c.029.221.089.418.181.59a1.487 1.487 0 0 0 .844.704c.189.058.394.087.615.087.176 0 .349-.021.518-.063a1.42 1.42 0 0 0 .459-.21c.133-.091.243-.207.327-.347a.974.974 0 0 0 .127-.507zm6.196-1.49h-2.968v2.52h3.462v.766h-4.366v-7.109h4.322v.772h-3.418v2.285h2.968v.766zm6.89-3.051h-2.197v6.337h-.879v-6.337h-2.197v-.772h5.273v.772zm-27.798 20.571h3.477v.766h-4.38v-7.109h.903v6.343zm6.729.766-2.246-7.109h.966l1.563 5.308.102.346.108-.356 1.572-5.298h.962l-2.241 7.109h-.786zm5.835-.586c0-.192.058-.356.175-.493.118-.136.295-.205.533-.205.234 0 .411.069.532.205a.698.698 0 0 1 .185.493.673.673 0 0 1-.185.484c-.124.13-.301.195-.532.195-.235 0-.412-.065-.533-.195a.71.71 0 0 1-.175-.484zm8.095-1.801h.992v.737h-.992v1.65h-.903v-1.65h-3.242v-.532l3.183-4.927h.962v4.722zm-3.144 0h2.241v-3.521l-.146.274-2.095 3.247zm-152.038-15.899h-2.969v2.52h3.462v.766h-4.365v-7.109h4.321v.772h-3.418v2.285h2.969v.766zm4.297-1.035 1.533-2.788h1.064l-2.065 3.525 2.114 3.584h-1.055l-1.572-2.841-1.577 2.841h-1.069l2.119-3.584-2.066-3.525h1.06l1.514 2.788zm4.79 1.47v2.851h-.904v-7.109h2.305c.319.007.62.057.903.151.287.095.537.232.752.411.215.179.384.4.508.664.127.263.191.566.191.908 0 .342-.064.644-.191.908-.124.26-.293.48-.508.659a2.261 2.261 0 0 1-.752.41 2.906 2.906 0 0 1-.903.147h-1.401zm0-.742h1.401c.208-.004.4-.036.576-.098.176-.065.329-.156.459-.273.13-.118.231-.259.303-.425a1.41 1.41 0 0 0 .112-.576 1.44 1.44 0 0 0-.112-.581 1.274 1.274 0 0 0-.298-.44 1.36 1.36 0 0 0-.464-.278 1.723 1.723 0 0 0-.576-.103h-1.401v2.774zm8.93.307h-2.968v2.52h3.462v.766h-4.366v-7.109h4.322v.772h-3.418v2.285h2.968v.766zm4.449.386h-1.421v2.9h-.899v-7.109h2.085c.332.007.645.054.938.142.293.088.55.219.771.395.218.176.389.397.513.664.127.264.19.575.19.933a1.892 1.892 0 0 1-.376 1.157 2.016 2.016 0 0 1-.42.415 2.662 2.662 0 0 1-.537.308l1.509 3.037-.005.058h-.952l-1.396-2.9zm-1.421-.742h1.211c.201-.003.392-.034.571-.093.179-.062.337-.15.474-.264.133-.114.239-.252.317-.415.078-.166.117-.356.117-.571 0-.228-.037-.426-.112-.596a1.207 1.207 0 0 0-.313-.434 1.36 1.36 0 0 0-.478-.259 2.035 2.035 0 0 0-.601-.093h-1.186v2.725zm9.868-2.695h-2.197v6.337h-.879v-6.337h-2.198v-.772h5.274v.772zm1.211-.772h4.297v.786h-1.704v5.542h1.704v.781h-4.297v-.781h1.665v-5.542h-1.665v-.786zm9.726 5.313a.963.963 0 0 0-.151-.552 1.33 1.33 0 0 0-.381-.381 2.537 2.537 0 0 0-.517-.254c-.186-.068-.365-.13-.538-.186a8.507 8.507 0 0 1-.766-.292 3.653 3.653 0 0 1-.703-.42 2.161 2.161 0 0 1-.528-.586 1.561 1.561 0 0 1-.2-.801c0-.306.067-.58.2-.82.137-.241.315-.445.533-.611a2.35 2.35 0 0 1 .742-.376c.276-.088.555-.132.835-.132.309 0 .607.052.893.157.287.101.541.244.762.429.221.186.399.41.532.674.134.264.204.558.21.884h-.928a1.94 1.94 0 0 0-.151-.557 1.368 1.368 0 0 0-.298-.434 1.275 1.275 0 0 0-.444-.279 1.533 1.533 0 0 0-.576-.102c-.173 0-.342.024-.508.073a1.332 1.332 0 0 0-.435.22c-.13.098-.234.218-.312.361a1.057 1.057 0 0 0-.112.498.911.911 0 0 0 .156.523c.101.14.229.258.386.356.153.098.319.179.498.244.182.065.353.122.512.171a7.2 7.2 0 0 1 .791.298c.264.114.505.26.723.439.215.166.387.37.518.611.133.241.2.519.2.835 0 .319-.072.597-.215.835-.14.237-.322.434-.547.591-.225.159-.478.28-.762.361a3.183 3.183 0 0 1-.849.117 3.03 3.03 0 0 1-1.001-.171 2.5 2.5 0 0 1-.85-.493 2.155 2.155 0 0 1-.513-.649 2.025 2.025 0 0 1-.2-.835h.923c.029.221.09.418.181.59a1.497 1.497 0 0 0 .844.704c.189.058.394.087.616.087.175 0 .348-.021.517-.063a1.42 1.42 0 0 0 .459-.21c.134-.091.243-.207.327-.347a.974.974 0 0 0 .127-.507zm6.197-1.49h-2.969v2.52h3.462v.766h-4.365v-7.109h4.321v.772h-3.418v2.285h2.969v.766zm-50.938 17.52h3.477v.766h-4.38v-7.109h.903v6.343zm6.729.766-2.246-7.109h.966l1.563 5.308.102.346.108-.356 1.572-5.298h.962l-2.241 7.109h-.786zm5.835-.586c0-.192.058-.356.175-.493.118-.136.295-.205.533-.205.234 0 .411.069.532.205a.698.698 0 0 1 .185.493.673.673 0 0 1-.185.484c-.124.13-.301.195-.532.195-.235 0-.412-.065-.533-.195a.71.71 0 0 1-.175-.484zm8.794.586h-4.659v-.649l2.329-2.588c.209-.231.383-.436.523-.615a3.88 3.88 0 0 0 .337-.498c.084-.15.145-.291.181-.425a1.69 1.69 0 0 0 .053-.42c0-.176-.029-.34-.088-.493a1.123 1.123 0 0 0-.244-.405 1.274 1.274 0 0 0-.923-.371c-.237 0-.444.034-.62.102a1.147 1.147 0 0 0-.693.747 2.04 2.04 0 0 0-.083.601h-.908c0-.3.052-.581.156-.845.104-.267.255-.5.454-.698.195-.199.435-.357.718-.474.286-.117.612-.176.976-.176.336 0 .637.051.904.152.27.097.498.234.683.41.186.176.327.384.425.625a2.013 2.013 0 0 1 .044 1.416 3.401 3.401 0 0 1-.288.61 5.444 5.444 0 0 1-.43.601c-.159.195-.329.391-.508.586l-1.909 2.07h3.57v.737zm170.67-160.713h-2.959v3.14h-.913v-7.11h4.366v.772h-3.453v2.431h2.959v.767zm5.445 1.299h-2.373l-.572 1.841h-.903l2.295-7.11h.757l2.256 7.11h-.899l-.561-1.841zm-2.129-.786h1.89l-.938-3.086-.952 3.086zm5.732-4.483 1.158 3.555 1.25-3.555h1.123v7.11h-.879v-2.837l.073-2.969-1.314 3.828h-.517l-1.206-3.726.073 2.867v2.837h-.879v-7.11h1.118zm8.926 3.823h-2.969v2.52h3.462v.767h-4.365v-7.11h4.321v.772h-3.418v2.285h2.969v.766zm-20.908 17.52h3.476v.767h-4.379v-7.11h.903v6.343zm6.728.767-2.246-7.11h.967l1.563 5.308.102.346.108-.356 1.572-5.298h.962l-2.241 7.11h-.787zm5.835-.586c0-.192.059-.357.176-.494.117-.136.295-.205.532-.205.235 0 .412.069.533.205a.703.703 0 0 1 .185.494.676.676 0 0 1-.185.483c-.124.13-.301.195-.533.195-.234 0-.411-.065-.532-.195a.708.708 0 0 1-.176-.483zm4.756-2.979.357-3.545h3.647v.879h-2.886l-.2 1.895c.14-.082.308-.153.503-.215s.422-.093.679-.093c.329 0 .623.057.884.171a1.9 1.9 0 0 1 .664.478c.182.209.322.459.42.752.097.293.146.619.146.977 0 .338-.045.653-.137.942a1.908 1.908 0 0 1-1.108 1.245c-.28.118-.609.176-.986.176-.29 0-.563-.04-.821-.122a2.017 2.017 0 0 1-.683-.366 1.938 1.938 0 0 1-.498-.615 2.41 2.41 0 0 1-.24-.865h.86c.055.404.203.71.444.918.244.209.557.313.938.313.214 0 .405-.038.571-.112.166-.079.306-.189.42-.332.111-.14.194-.31.249-.508.058-.199.088-.42.088-.664 0-.222-.033-.428-.098-.62a1.482 1.482 0 0 0-.273-.503 1.296 1.296 0 0 0-.445-.332 1.412 1.412 0 0 0-.605-.122c-.15 0-.28.011-.391.034a1.27 1.27 0 0 0-.293.088 1.451 1.451 0 0 0-.249.141 3.533 3.533 0 0 0-.234.191l-.723-.186z"/><defs><linearGradient id="a" x1="120.721" x2="310.263" y1="242.268" y2="54.215" gradientUnits="userSpaceOnUse"><stop stop-color="#492BFF"/><stop offset=".28" stop-color="#8045FF"/><stop offset=".5" stop-color="#B95CFF"/><stop offset=".977" stop-color="#FF9CBE"/></linearGradient></defs></svg>